{"title":"Cop.Out.2010.x264.AAC.-Zen_Bud","uid":5727611,"size":945014979,"categoryP":"other","categoryS":"other","magnet":"?xt=urn:btih:7e434783608de971f19e37e39cc6e842688facda&amp;dn=Cop.Out.2010.x264.AAC.-Zen_Bud&amp;tr=udp%3A%2F%2Ftracker.openbittorrent.com%3A80&amp;tr=udp%3A%2F%2Fopen.demonii.com%3A1337&amp;tr=udp%3A%2F%2Ftracker.coppersurfer.tk%3A6969&amp;tr=udp%3A%2F%2Fexodus.desync.com%3A6969","seeders":0,"leechers":1,"uploader":"Zen_Bud","files":1,"time":1280517767,"description":"General\n\nComplete name                    : Cop Out.2010.m4v\nFormat                           : MPEG-4\nCodec ID                         : mp42\nFile size                        : 901 MiB\nDuration                         : 1h 43mn\nOverall bit rate                 : 1 219 Kbps\nWriting application              : HandBrake svn3461 2010072701\n\nVideo\n\nFormat                           : AVC\nDuration                         : 1h 43mn\nBit rate                         : 1 055 Kbps\nWidth                            : 720 pixels\nHeight                           : 436 pixels\nDisplay aspect ratio             : 2.35:1\nStream size                      : 780 MiB (87%)\nWriting library                  : x264 core 104\n\n\nAudio\n\nFormat                           : AAC\nDuration                         : 1h 43mn\nBit rate                         : 160 Kbps\nChannel(s)                       : 2 channels\nChannel positions                : Front: L R\nSampling rate                    : 48.0 KHz\nStream size                      : 118 MiB (13%)","torrent":{"xt":"urn:btih:7e434783608de971f19e37e39cc6e842688facda","amp;dn":"Cop.Out.2010.x264.AAC.-Zen_Bud","amp;tr":["udp%3A%2F%2Ftracker.openbittorrent.com%3A80","udp%3A%2F%2Fopen.demonii.com%3A1337","udp%3A%2F%2Ftracker.coppersurfer.tk%3A6969","udp%3A%2F%2Fexodus.desync.com%3A6969"],"infoHash":"7e434783608de971f19e37e39cc6e842688facda","infoHashBuffer":{"type":"Buffer","data":[126,67,71,131,96,141,233,113,241,158,55,227,156,198,232,66,104,143,172,218]},"announce":[],"urlList":[]}}